# xmcd
#
# Track frame offsets:
#	150
#	8635
#	22437
#	37145
#	49252
#	69432
#	81977
#	95280
#	108822
#	120312
#	131385
#	144675
#
# Disc length: 2391 seconds
#
# Revision: 1
# Processed by: cddbd v1.4PL0 Copyright (c) Steve Scherf et al.
# Submitted via: EasyCDDAExtractor 5.0.6
#
DISCID=9f09550c
DTITLE=Various Artist - After Hour Blues
DYEAR=1900
DGENRE=blues
TTITLE0=Baby Please Don't Go (Joe Williams)
TTITLE1=At Last (Etta James)
TTITLE2=I Ain't Mad At You Pretty Baby (Gatemouth Moore)
TTITLE3=Trapped By A Thing Called Love (Denise Lasalle)
TTITLE4=Nothin' From Nothin' Blues (Big Joe Turner)
TTITLE5=Leave My Woman Alone (Ray Charles)
TTITLE6=Billie's Blues (Billie Holiday)
TTITLE7=Mojo Hand (Lightnin' Hopkins)
TTITLE8=Hey Bo Diddley (Bo Diddley)
TTITLE9=Big Fine Woman (John Lee Hooker)
TTITLE10=Rockin' Blues (Charles Brown)
TTITLE11=Ball and Chain (Big Mama Thornton)
EXTD=
EXTT0=
EXTT1=
EXTT2=
EXTT3=
EXTT4=
EXTT5=
EXTT6=
EXTT7=
EXTT8=
EXTT9=
EXTT10=
EXTT11=
PLAYORDER=
